<?xml version="1.0" standalone="no"?>
<!DOCTYPE svg PUBLIC "-//W3C//DTD SVG 20010904//EN"
 "http://www.w3.org/TR/2001/REC-SVG-20010904/DTD/svg10.dtd">
<svg version="1.0" xmlns="http://www.w3.org/2000/svg"
 width="1024.000000pt" height="1024.000000pt" viewBox="0 0 1024.000000 1024.000000"
 preserveAspectRatio="xMidYMid meet">

<g transform="translate(0.000000,1024.000000) scale(0.100000,-0.100000)"
fill="#000000" stroke="none">
<path d="M4245 8619 c-160 -37 -355 -136 -428 -216 -15 -18 -23 -19 -75 -10
-94 15 -293 2 -401 -28 -114 -31 -242 -89 -326 -149 -186 -133 -324 -345 -359
-550 l-12 -68 -69 -23 c-100 -32 -141 -51 -220 -103 -180 -116 -325 -318 -380
-532 -38 -146 -36 -366 4 -498 l20 -63 -74 -70 c-182 -173 -288 -410 -302
-674 -15 -295 68 -520 269 -731 l59 -61 -16 -88 c-27 -155 -14 -331 35 -474
81 -241 284 -463 504 -554 78 -32 181 -57 237 -57 35 0 37 -2 49 -47 65 -241
292 -490 530 -582 125 -49 225 -64 375 -59 l130 5 40 -64 c52 -83 182 -208
273 -263 238 -141 521 -155 757 -38 79 39 151 94 505 382 617 501 846 703
1140 1002 469 477 799 931 980 1346 215 496 263 973 135 1356 -115 344 -329
577 -646 705 -356 144 -761 108 -1133 -101 -178 -101 -430 -322 -574 -505
l-61 -79 -3 674 -3 673 -24 65 c-86 244 -296 417 -573 475 -77 17 -298 19
-363 4z m321 -269 c177 -45 333 -193 363 -344 16 -81 18 -4848 2 -4906 -18
-65 -52 -119 -109 -172 -204 -191 -550 -146 -732 95 -22 30 -40 56 -40 59 0 3
30 25 67 49 77 50 204 172 251 240 116 170 181 402 137 492 -32 65 -109 93
-178 64 -48 -21 -73 -64 -81 -143 -17 -168 -118 -328 -269 -428 -111 -73 -208
-107 -322 -113 -317 -17 -590 193 -650 502 -21 106 -29 126 -68 151 -25 17
-53 23 -132 27 -55 3 -125 13 -155 22 -203 61 -368 224 -438 433 -22 66 -26
95 -26 202 -1 106 3 136 23 198 73 222 286 391 494 392 148 0 230 101 183 225
-44 113 -176 141 -258 54 -31 -33 -51 -43 -113 -59 -143 -37 -320 -150 -397
-255 -18 -24 -36 -44 -40 -45 -16 0 -93 110 -129 185 -126 266 -75 583 131
807 l55 60 290 -1 c216 -2 291 -5 294 -14 2 -7 29 -37 60 -68 124 -121 289
-121 411 1 119 117 122 290 9 414 -134 147 -354 130 -460 -36 l-31 -48 -213 0
c-158 0 -215 3 -222 13 -6 6 -20 41 -31 77 -84 256 -18 520 173 699 102 95
183 134 393 191 58 15 77 49 86 149 14 167 70 286 196 411 93 93 199 155 315
186 56 14 255 32 255 23 0 -3 -9 -30 -20 -60 -41 -119 -50 -251 -24 -376 16
-76 61 -203 92 -256 20 -34 79 -67 119 -67 63 0 133 67 133 127 0 12 -16 51
-35 88 -112 210 -78 444 89 611 144 144 346 196 552 144z m2199 -1148 c145
-40 272 -107 377 -201 110 -98 207 -268 255 -448 25 -91 27 -113 27 -308 0
-192 -2 -221 -27 -338 -97 -448 -331 -871 -774 -1397 -137 -163 -565 -587
-778 -772 -99 -86 -281 -238 -405 -338 l-225 -182 -7 438 c-4 242 -7 907 -5
1479 l2 1041 54 107 c240 478 625 826 1012 916 123 29 131 30 284 26 98 -3
161 -10 210 -23z m-3709 -856 c46 -46 48 -101 5 -148 -25 -28 -36 -33 -76 -33
-40 0 -51 5 -76 33 -43 47 -41 102 5 148 26 26 42 34 71 34 29 0 45 -8 71 -34z"/>
</g>
</svg>
